# Made in Blockbench 4.11.0
mtllib Планшетка.mtl

o cube
v 0.21875 0.15625 0
v 0.21875 0.15625 -0.0625
v 0.21875 -0.5 0
v 0.21875 -0.5 -0.0625
v -0.21875 0.15625 -0.0625
v -0.21875 0.15625 0
v -0.21875 -0.5 -0.0625
v -0.21875 -0.5 0
vt 0 1
vt 0.21875 1
vt 0.21875 0.671875
vt 0 0.671875
vt 0.375 0.65625
vt 0.40625 0.65625
vt 0.40625 0.328125
vt 0.375 0.328125
vt 0.21875 1
vt 0.4375 1
vt 0.4375 0.671875
vt 0.21875 0.671875
vt 0.40625 0.65625
vt 0.4375 0.65625
vt 0.4375 0.328125
vt 0.40625 0.328125
vt 0.65625 0.96875
vt 0.4375 0.96875
vt 0.4375 1
vt 0.65625 1
vt 0.65625 0.96875
vt 0.4375 0.96875
vt 0.4375 0.9375
vt 0.65625 0.9375
vn 0 0 -1
vn 1 0 0
vn 0 0 1
vn -1 0 0
vn 0 1 0
vn 0 -1 0
usemtl m_6ed7e69c-8f34-3a36-a22f-1475c7f57663
f 4/4/1 7/3/1 5/2/1 2/1/1
f 3/8/2 4/7/2 2/6/2 1/5/2
f 8/12/3 3/11/3 1/10/3 6/9/3
f 7/16/4 8/15/4 6/14/4 5/13/4
f 6/20/5 1/19/5 2/18/5 5/17/5
f 7/24/6 4/23/6 3/22/6 8/21/6
o cube
v 0.1937500000000001 0.09375000000000022 -0.050000000000000044
v 0.1937500000000001 0.09375000000000022 -0.08125000000000004
v 0.1937500000000001 -0.46875 -0.050000000000000044
v 0.1937500000000001 -0.46875 -0.08125000000000004
v -0.19375000000000003 0.09375000000000022 -0.08125000000000004
v -0.19375000000000003 0.09375000000000022 -0.050000000000000044
v -0.19375000000000003 -0.46875 -0.08125000000000004
v -0.19375000000000003 -0.46875 -0.050000000000000044
vt 0 0.65625
vt 0.1875 0.65625
vt 0.1875 0.375
vt 0 0.375
vt 0.4375 0.9375
vt 0.453125 0.9375
vt 0.453125 0.65625
vt 0.4375 0.65625
vt 0.1875 0.65625
vt 0.375 0.65625
vt 0.375 0.375
vt 0.1875 0.375
vt 0.4375 0.65625
vt 0.453125 0.65625
vt 0.453125 0.375
vt 0.4375 0.375
vt 0.65625 0.796875
vt 0.46875 0.796875
vt 0.46875 0.8125
vt 0.65625 0.8125
vt 0.65625 0.78125
vt 0.46875 0.78125
vt 0.46875 0.765625
vt 0.65625 0.765625
vn 0 0 -1
vn 1 0 0
vn 0 0 1
vn -1 0 0
vn 0 1 0
vn 0 -1 0
usemtl m_6ed7e69c-8f34-3a36-a22f-1475c7f57663
f 12/28/7 15/27/7 13/26/7 10/25/7
f 11/32/8 12/31/8 10/30/8 9/29/8
f 16/36/9 11/35/9 9/34/9 14/33/9
f 15/40/10 16/39/10 14/38/10 13/37/10
f 14/44/11 9/43/11 10/42/11 13/41/11
f 15/48/12 12/47/12 11/46/12 16/45/12
o cube
v 0.08125000000000004 0.18125000000000002 0.006249999999999978
v 0.08125000000000004 0.18125000000000002 -0.06875000000000003
v 0.08125000000000004 0.11875000000000002 0.006249999999999978
v 0.08125000000000004 0.11875000000000002 -0.06875000000000003
v -0.09375 0.18125000000000002 -0.06875000000000003
v -0.09375 0.18125000000000002 0.006249999999999978
v -0.09375 0.11875000000000002 -0.06875000000000003
v -0.09375 0.11875000000000002 0.006249999999999978
vt 0.46875 0.9375
vt 0.5625 0.9375
vt 0.5625 0.90625
vt 0.46875 0.90625
vt 0.46875 0.75
vt 0.5 0.75
vt 0.5 0.71875
vt 0.46875 0.71875
vt 0.46875 0.90625
vt 0.5625 0.90625
vt 0.5625 0.875
vt 0.46875 0.875
vt 0.46875 0.71875
vt 0.5 0.71875
vt 0.5 0.6875
vt 0.46875 0.6875
vt 0.5625 0.84375
vt 0.46875 0.84375
vt 0.46875 0.875
vt 0.5625 0.875
vt 0.5625 0.84375
vt 0.46875 0.84375
vt 0.46875 0.8125
vt 0.5625 0.8125
vn 0 0 -1
vn 1 0 0
vn 0 0 1
vn -1 0 0
vn 0 1 0
vn 0 -1 0
usemtl m_6ed7e69c-8f34-3a36-a22f-1475c7f57663
f 20/52/13 23/51/13 21/50/13 18/49/13
f 19/56/14 20/55/14 18/54/14 17/53/14
f 24/60/15 19/59/15 17/58/15 22/57/15
f 23/64/16 24/63/16 22/62/16 21/61/16
f 22/68/17 17/67/17 18/66/17 21/65/17
f 23/72/18 20/71/18 19/70/18 24/69/18